# xmcd
#
# Track frame offsets: 
#        150
#        13892
#        27562
#        58110
#        73675
#        86747
#        107392
#        119975
#        143930
#
# Disc length: 2212 seconds
#
# Revision: 3
# Processed by: cddbd v1.5.2PL0 Copyright (c) Steve Scherf et al.
# Submitted via: ExactAudioCopy v0.95b4
#
DISCID=8708a209
DTITLE=Koko Taylor  - The Earthshaker
DYEAR=1978
DGENRE=Blues
TTITLE0=Let The Good Times Roll
TTITLE1=Spoonful
TTITLE2=Walking The Back Streets
TTITLE3=Cut You Loose
TTITLE4=Hey Bartender
TTITLE5=I'm A Woman
TTITLE6=You Can Have My Husband
TTITLE7=Please Don't Dog Me
TTITLE8=Wang Dang Doodle
EXTD=YEAR: 1978
EXTT0=
EXTT1=
EXTT2=
EXTT3=
EXTT4=
EXTT5=
EXTT6=
EXTT7=
EXTT8=
PLAYORDER=
